<svg xmlns="http://www.w3.org/2000/svg" width="800" height="600" viewBox="0 0 800 600"><defs>
  <linearGradient id="bg" x1="0" y1="0" x2="1" y2="1"><stop offset="0" stop-color="#eef3e8"/><stop offset="0.5" stop-color="#dbe7c8"/><stop offset="1" stop-color="#e6eedd"/></linearGradient>
  <radialGradient id="wp" cx="50%" cy="46%" r="82%"><stop offset="0" stop-color="#fdfefb"/><stop offset="0.82" stop-color="#f4f6ea"/><stop offset="1" stop-color="#e6ebd6"/></radialGradient>
  <radialGradient id="wp2" cx="50%" cy="48%" r="80%"><stop offset="0" stop-color="#ffffff"/><stop offset="1" stop-color="#eef1de"/></radialGradient>
  <radialGradient id="pp" cx="50%" cy="48%" r="82%"><stop offset="0" stop-color="#f4dce1"/><stop offset="0.82" stop-color="#edbcc7"/><stop offset="1" stop-color="#e3a3b1"/></radialGradient>
  <radialGradient id="pp2" cx="50%" cy="48%" r="80%"><stop offset="0" stop-color="#f7e2e6"/><stop offset="1" stop-color="#e8adba"/></radialGradient>
  <linearGradient id="lg" x1="0" y1="1" x2="0" y2="0"><stop offset="0" stop-color="#5c7a45"/><stop offset="1" stop-color="#9ab578"/></linearGradient>
  <linearGradient id="lg2" x1="0" y1="1" x2="0" y2="0"><stop offset="0" stop-color="#496a38"/><stop offset="1" stop-color="#84a266"/></linearGradient>
  <filter id="soft" x="-20%" y="-20%" width="140%" height="140%"><feGaussianBlur stdDeviation="0.7"/></filter>
  <filter id="blur" x="-30%" y="-30%" width="160%" height="160%"><feGaussianBlur stdDeviation="24"/></filter>
</defs><rect width="800" height="600" fill="url(#bg)"/><g filter="url(#blur)"><ellipse cx="362" cy="336" rx="222" ry="142" fill="#cdd9b4" opacity="0.55"/><ellipse cx="148" cy="307" rx="189" ry="171" fill="#b9cc9a" opacity="0.55"/><ellipse cx="357" cy="85" rx="179" ry="180" fill="#b9cc9a" opacity="0.55"/><ellipse cx="476" cy="238" rx="170" ry="167" fill="#cdd9b4" opacity="0.55"/><ellipse cx="499" cy="499" rx="127" ry="103" fill="#cdd9b4" opacity="0.55"/><ellipse cx="480" cy="467" rx="156" ry="153" fill="#cdd9b4" opacity="0.55"/><ellipse cx="415" cy="384" rx="175" ry="160" fill="#d7e0c2" opacity="0.55"/><ellipse cx="524" cy="244" rx="181" ry="184" fill="#b9cc9a" opacity="0.55"/><ellipse cx="566" cy="189" rx="145" ry="126" fill="#b9cc9a" opacity="0.55"/><ellipse cx="451" cy="65" rx="132" ry="126" fill="#b9cc9a" opacity="0.55"/></g><g transform="rotate(75.5 766.4 508.4)" filter="url(#soft)"><path d="M766.4 508.4 C743.3 489.1 754.9 458.9 766.4 453.4 C778.0 458.9 789.5 489.1 766.4 508.4 Z" fill="url(#lg)"/></g><g transform="rotate(26.3 376.0 588.2)" filter="url(#soft)"><path d="M376.0 588.2 C342.0 559.9 359.0 515.5 376.0 507.4 C393.0 515.5 409.9 559.9 376.0 588.2 Z" fill="url(#lg)"/></g><g transform="rotate(119.7 622.8 161.9)" filter="url(#soft)"><path d="M622.8 161.9 C597.3 140.6 610.1 107.3 622.8 101.2 C635.5 107.3 648.3 140.6 622.8 161.9 Z" fill="url(#lg2)"/></g><g transform="rotate(36.4 606.4 70.8)" filter="url(#soft)"><path d="M606.4 70.8 C576.6 45.9 591.5 6.9 606.4 -0.2 C621.3 6.9 636.3 45.9 606.4 70.8 Z" fill="url(#lg)"/></g><g transform="rotate(67.8 372.0 292.1)" filter="url(#soft)"><path d="M372.0 292.1 C330.2 257.3 351.1 202.7 372.0 192.8 C392.8 202.7 413.7 257.3 372.0 292.1 Z" fill="url(#lg)"/></g><g transform="rotate(138.2 788.2 461.7)" filter="url(#soft)"><path d="M788.2 461.7 C753.7 432.9 771.0 387.7 788.2 379.5 C805.5 387.7 822.8 432.9 788.2 461.7 Z" fill="url(#lg2)"/></g><g transform="rotate(349.5 336.6 127.7)" filter="url(#soft)"><path d="M336.6 127.7 C306.1 102.3 321.4 62.4 336.6 55.2 C351.8 62.4 367.1 102.3 336.6 127.7 Z" fill="url(#lg2)"/></g><g transform="rotate(358.5 798.3 11.8)" filter="url(#soft)"><path d="M798.3 11.8 C770.1 -11.7 784.2 -48.7 798.3 -55.4 C812.4 -48.7 826.5 -11.7 798.3 11.8 Z" fill="url(#lg)"/></g><g transform="rotate(3.4 33.7 87.8)" filter="url(#soft)"><path d="M33.7 87.8 C-1.5 58.5 16.1 12.5 33.7 4.1 C51.3 12.5 68.8 58.5 33.7 87.8 Z" fill="url(#lg2)"/></g><g transform="rotate(75.1 664.2 231.7)" filter="url(#soft)"><path d="M664.2 231.7 C639.1 210.8 651.7 177.9 664.2 171.9 C676.8 177.9 689.4 210.8 664.2 231.7 Z" fill="url(#lg)"/></g><g transform="rotate(45.8 12.4 221.2)" filter="url(#soft)"><path d="M12.4 221.2 C-27.7 187.8 -7.6 135.3 12.4 125.8 C32.4 135.3 52.5 187.8 12.4 221.2 Z" fill="url(#lg2)"/></g><g transform="rotate(225.8 665.9 81.4)" filter="url(#soft)"><path d="M665.9 81.4 C632.2 53.4 649.1 9.4 665.9 1.3 C682.7 9.4 699.5 53.4 665.9 81.4 Z" fill="url(#lg2)"/></g><g transform="rotate(68.3 726.7 490.7)" filter="url(#soft)"><path d="M726.7 490.7 C696.8 465.8 711.8 426.6 726.7 419.5 C741.7 426.6 756.7 465.8 726.7 490.7 Z" fill="url(#lg)"/></g><g transform="rotate(28.3 549.6 232.9)" filter="url(#soft)"><path d="M549.6 232.9 C513.3 202.7 531.4 155.2 549.6 146.6 C567.7 155.2 585.9 202.7 549.6 232.9 Z" fill="url(#lg)"/></g><g transform="rotate(85.8 83.1 23.2)" filter="url(#soft)"><path d="M83.1 23.2 C33.7 -17.9 58.4 -82.6 83.1 -94.4 C107.8 -82.6 132.5 -17.9 83.1 23.2 Z" fill="url(#lg2)"/></g><g transform="rotate(105.6 205.6 494.2)" filter="url(#soft)"><path d="M205.6 494.2 C166.2 461.4 185.9 409.8 205.6 400.5 C225.3 409.8 245.0 461.4 205.6 494.2 Z" fill="url(#lg)"/></g><g transform="rotate(172.5 743.4 586.3)" filter="url(#soft)"><path d="M743.4 586.3 C716.8 564.2 730.1 529.4 743.4 523.1 C756.7 529.4 769.9 564.2 743.4 586.3 Z" fill="url(#lg)"/></g><g transform="rotate(6.0 224.2 550.4)" filter="url(#soft)"><path d="M224.2 550.4 C195.5 526.5 209.8 489.0 224.2 482.2 C238.5 489.0 252.8 526.5 224.2 550.4 Z" fill="url(#lg2)"/></g><g transform="rotate(101.5 329.1 149.4)" filter="url(#soft)"><path d="M329.1 149.4 C304.8 129.1 317.0 97.2 329.1 91.4 C341.3 97.2 353.5 129.1 329.1 149.4 Z" fill="url(#lg)"/></g><g transform="rotate(119.1 73.8 83.0)" filter="url(#soft)"><path d="M73.8 83.0 C38.4 53.5 56.1 7.2 73.8 -1.2 C91.5 7.2 109.1 53.5 73.8 83.0 Z" fill="url(#lg)"/></g><g transform="rotate(128.7 471.9 554.2)" filter="url(#soft)"><path d="M471.9 554.2 C435.8 524.1 453.9 476.9 471.9 468.3 C489.9 476.9 508.0 524.1 471.9 554.2 Z" fill="url(#lg2)"/></g><g transform="rotate(173.6 770.2 12.8)" filter="url(#soft)"><path d="M770.2 12.8 C729.7 -21.0 750.0 -74.0 770.2 -83.6 C790.5 -74.0 810.7 -21.0 770.2 12.8 Z" fill="url(#lg2)"/></g><g transform="rotate(196.6 255.1 599.6)" filter="url(#soft)"><path d="M255.1 599.6 C230.0 578.7 242.5 545.7 255.1 539.7 C267.7 545.7 280.3 578.7 255.1 599.6 Z" fill="url(#lg)"/></g><g transform="rotate(285.6 720.2 442.3)" filter="url(#soft)"><path d="M720.2 442.3 C677.8 407.0 699.0 351.6 720.2 341.5 C741.3 351.6 762.5 407.0 720.2 442.3 Z" fill="url(#lg2)"/></g><g transform="rotate(313.6 281.5 411.1)" filter="url(#soft)"><path d="M281.5 411.1 C233.8 371.3 257.6 308.9 281.5 297.5 C305.3 308.9 329.2 371.3 281.5 411.1 Z" fill="url(#lg2)"/></g><g transform="rotate(5.2 755.4 18.2)" filter="url(#soft)"><path d="M755.4 18.2 C718.6 -12.5 737.0 -60.6 755.4 -69.3 C773.8 -60.6 792.1 -12.5 755.4 18.2 Z" fill="url(#lg2)"/></g><g transform="rotate(264.6 400.0 40.0)" filter="url(#soft)"><ellipse cx="400.0" cy="9.4" rx="25.7" ry="56.3" fill="url(#pp)" stroke="#e2adba" stroke-width="1.59" stroke-opacity="0.5" transform="rotate(0.0 400.0 40.0)"/><ellipse cx="400.0" cy="9.4" rx="25.7" ry="56.3" fill="url(#pp)" stroke="#e2adba" stroke-width="1.59" stroke-opacity="0.5" transform="rotate(40.0 400.0 40.0)"/><ellipse cx="400.0" cy="9.4" rx="25.7" ry="56.3" fill="url(#pp)" stroke="#e2adba" stroke-width="1.59" stroke-opacity="0.5" transform="rotate(80.0 400.0 40.0)"/><ellipse cx="400.0" cy="9.4" rx="25.7" ry="56.3" fill="url(#pp)" stroke="#e2adba" stroke-width="1.59" stroke-opacity="0.5" transform="rotate(120.0 400.0 40.0)"/><ellipse cx="400.0" cy="9.4" rx="25.7" ry="56.3" fill="url(#pp)" stroke="#e2adba" stroke-width="1.59" stroke-opacity="0.5" transform="rotate(160.0 400.0 40.0)"/><ellipse cx="400.0" cy="9.4" rx="25.7" ry="56.3" fill="url(#pp)" stroke="#e2adba" stroke-width="1.59" stroke-opacity="0.5" transform="rotate(200.0 400.0 40.0)"/><ellipse cx="400.0" cy="9.4" rx="25.7" ry="56.3" fill="url(#pp)" stroke="#e2adba" stroke-width="1.59" stroke-opacity="0.5" transform="rotate(240.0 400.0 40.0)"/><ellipse cx="400.0" cy="9.4" rx="25.7" ry="56.3" fill="url(#pp)" stroke="#e2adba" stroke-width="1.59" stroke-opacity="0.5" transform="rotate(280.0 400.0 40.0)"/><ellipse cx="400.0" cy="9.4" rx="25.7" ry="56.3" fill="url(#pp)" stroke="#e2adba" stroke-width="1.59" stroke-opacity="0.5" transform="rotate(320.0 400.0 40.0)"/><ellipse cx="400.0" cy="20.4" rx="18.4" ry="37.9" fill="url(#pp2)" stroke="#e2adba" stroke-width="1.59" stroke-opacity="0.5" transform="rotate(25.0 400.0 40.0)"/><ellipse cx="400.0" cy="20.4" rx="18.4" ry="37.9" fill="url(#pp2)" stroke="#e2adba" stroke-width="1.59" stroke-opacity="0.5" transform="rotate(76.0 400.0 40.0)"/><ellipse cx="400.0" cy="20.4" rx="18.4" ry="37.9" fill="url(#pp2)" stroke="#e2adba" stroke-width="1.59" stroke-opacity="0.5" transform="rotate(127.0 400.0 40.0)"/><ellipse cx="400.0" cy="20.4" rx="18.4" ry="37.9" fill="url(#pp2)" stroke="#e2adba" stroke-width="1.59" stroke-opacity="0.5" transform="rotate(178.0 400.0 40.0)"/><ellipse cx="400.0" cy="20.4" rx="18.4" ry="37.9" fill="url(#pp2)" stroke="#e2adba" stroke-width="1.59" stroke-opacity="0.5" transform="rotate(229.0 400.0 40.0)"/><ellipse cx="400.0" cy="20.4" rx="18.4" ry="37.9" fill="url(#pp2)" stroke="#e2adba" stroke-width="1.59" stroke-opacity="0.5" transform="rotate(280.0 400.0 40.0)"/><ellipse cx="400.0" cy="20.4" rx="18.4" ry="37.9" fill="url(#pp2)" stroke="#e2adba" stroke-width="1.59" stroke-opacity="0.5" transform="rotate(331.0 400.0 40.0)"/><circle cx="400.0" cy="40.0" r="6.1" fill="#d98fa4"/></g><g transform="rotate(158.6 55.0 420.0)" filter="url(#soft)"><ellipse cx="55.0" cy="384.8" rx="33.9" ry="67.8" fill="url(#wp)" stroke="#d3dcbf" stroke-width="1.90" stroke-opacity="0.55" transform="rotate(0.0 55.0 420.0)"/><ellipse cx="55.0" cy="384.8" rx="33.9" ry="67.8" fill="url(#wp)" stroke="#d3dcbf" stroke-width="1.90" stroke-opacity="0.55" transform="rotate(60.0 55.0 420.0)"/><ellipse cx="55.0" cy="384.8" rx="33.9" ry="67.8" fill="url(#wp)" stroke="#d3dcbf" stroke-width="1.90" stroke-opacity="0.55" transform="rotate(120.0 55.0 420.0)"/><ellipse cx="55.0" cy="384.8" rx="33.9" ry="67.8" fill="url(#wp)" stroke="#d3dcbf" stroke-width="1.90" stroke-opacity="0.55" transform="rotate(180.0 55.0 420.0)"/><ellipse cx="55.0" cy="384.8" rx="33.9" ry="67.8" fill="url(#wp)" stroke="#d3dcbf" stroke-width="1.90" stroke-opacity="0.55" transform="rotate(240.0 55.0 420.0)"/><ellipse cx="55.0" cy="384.8" rx="33.9" ry="67.8" fill="url(#wp)" stroke="#d3dcbf" stroke-width="1.90" stroke-opacity="0.55" transform="rotate(300.0 55.0 420.0)"/><ellipse cx="55.0" cy="397.0" rx="20.3" ry="40.7" fill="url(#wp2)" stroke="#d3dcbf" stroke-width="1.90" stroke-opacity="0.55" transform="rotate(30.0 55.0 420.0)"/><ellipse cx="55.0" cy="397.0" rx="20.3" ry="40.7" fill="url(#wp2)" stroke="#d3dcbf" stroke-width="1.90" stroke-opacity="0.55" transform="rotate(102.0 55.0 420.0)"/><ellipse cx="55.0" cy="397.0" rx="20.3" ry="40.7" fill="url(#wp2)" stroke="#d3dcbf" stroke-width="1.90" stroke-opacity="0.55" transform="rotate(174.0 55.0 420.0)"/><ellipse cx="55.0" cy="397.0" rx="20.3" ry="40.7" fill="url(#wp2)" stroke="#d3dcbf" stroke-width="1.90" stroke-opacity="0.55" transform="rotate(246.0 55.0 420.0)"/><ellipse cx="55.0" cy="397.0" rx="20.3" ry="40.7" fill="url(#wp2)" stroke="#d3dcbf" stroke-width="1.90" stroke-opacity="0.55" transform="rotate(318.0 55.0 420.0)"/><circle cx="55.0" cy="420.0" r="10.8" fill="#dfe0b8"/></g><g transform="rotate(30.2 720.0 80.0)" filter="url(#soft)"><ellipse cx="720.0" cy="40.2" rx="38.3" ry="76.5" fill="url(#wp)" stroke="#d3dcbf" stroke-width="2.14" stroke-opacity="0.55" transform="rotate(0.0 720.0 80.0)"/><ellipse cx="720.0" cy="40.2" rx="38.3" ry="76.5" fill="url(#wp)" stroke="#d3dcbf" stroke-width="2.14" stroke-opacity="0.55" transform="rotate(60.0 720.0 80.0)"/><ellipse cx="720.0" cy="40.2" rx="38.3" ry="76.5" fill="url(#wp)" stroke="#d3dcbf" stroke-width="2.14" stroke-opacity="0.55" transform="rotate(120.0 720.0 80.0)"/><ellipse cx="720.0" cy="40.2" rx="38.3" ry="76.5" fill="url(#wp)" stroke="#d3dcbf" stroke-width="2.14" stroke-opacity="0.55" transform="rotate(180.0 720.0 80.0)"/><ellipse cx="720.0" cy="40.2" rx="38.3" ry="76.5" fill="url(#wp)" stroke="#d3dcbf" stroke-width="2.14" stroke-opacity="0.55" transform="rotate(240.0 720.0 80.0)"/><ellipse cx="720.0" cy="40.2" rx="38.3" ry="76.5" fill="url(#wp)" stroke="#d3dcbf" stroke-width="2.14" stroke-opacity="0.55" transform="rotate(300.0 720.0 80.0)"/><ellipse cx="720.0" cy="54.0" rx="23.0" ry="45.9" fill="url(#wp2)" stroke="#d3dcbf" stroke-width="2.14" stroke-opacity="0.55" transform="rotate(30.0 720.0 80.0)"/><ellipse cx="720.0" cy="54.0" rx="23.0" ry="45.9" fill="url(#wp2)" stroke="#d3dcbf" stroke-width="2.14" stroke-opacity="0.55" transform="rotate(102.0 720.0 80.0)"/><ellipse cx="720.0" cy="54.0" rx="23.0" ry="45.9" fill="url(#wp2)" stroke="#d3dcbf" stroke-width="2.14" stroke-opacity="0.55" transform="rotate(174.0 720.0 80.0)"/><ellipse cx="720.0" cy="54.0" rx="23.0" ry="45.9" fill="url(#wp2)" stroke="#d3dcbf" stroke-width="2.14" stroke-opacity="0.55" transform="rotate(246.0 720.0 80.0)"/><ellipse cx="720.0" cy="54.0" rx="23.0" ry="45.9" fill="url(#wp2)" stroke="#d3dcbf" stroke-width="2.14" stroke-opacity="0.55" transform="rotate(318.0 720.0 80.0)"/><circle cx="720.0" cy="80.0" r="12.2" fill="#dfe0b8"/></g><g transform="rotate(10.7 560.0 60.0)" filter="url(#soft)"><ellipse cx="560.0" cy="23.2" rx="30.9" ry="67.6" fill="url(#pp)" stroke="#e2adba" stroke-width="1.91" stroke-opacity="0.5" transform="rotate(0.0 560.0 60.0)"/><ellipse cx="560.0" cy="23.2" rx="30.9" ry="67.6" fill="url(#pp)" stroke="#e2adba" stroke-width="1.91" stroke-opacity="0.5" transform="rotate(40.0 560.0 60.0)"/><ellipse cx="560.0" cy="23.2" rx="30.9" ry="67.6" fill="url(#pp)" stroke="#e2adba" stroke-width="1.91" stroke-opacity="0.5" transform="rotate(80.0 560.0 60.0)"/><ellipse cx="560.0" cy="23.2" rx="30.9" ry="67.6" fill="url(#pp)" stroke="#e2adba" stroke-width="1.91" stroke-opacity="0.5" transform="rotate(120.0 560.0 60.0)"/><ellipse cx="560.0" cy="23.2" rx="30.9" ry="67.6" fill="url(#pp)" stroke="#e2adba" stroke-width="1.91" stroke-opacity="0.5" transform="rotate(160.0 560.0 60.0)"/><ellipse cx="560.0" cy="23.2" rx="30.9" ry="67.6" fill="url(#pp)" stroke="#e2adba" stroke-width="1.91" stroke-opacity="0.5" transform="rotate(200.0 560.0 60.0)"/><ellipse cx="560.0" cy="23.2" rx="30.9" ry="67.6" fill="url(#pp)" stroke="#e2adba" stroke-width="1.91" stroke-opacity="0.5" transform="rotate(240.0 560.0 60.0)"/><ellipse cx="560.0" cy="23.2" rx="30.9" ry="67.6" fill="url(#pp)" stroke="#e2adba" stroke-width="1.91" stroke-opacity="0.5" transform="rotate(280.0 560.0 60.0)"/><ellipse cx="560.0" cy="23.2" rx="30.9" ry="67.6" fill="url(#pp)" stroke="#e2adba" stroke-width="1.91" stroke-opacity="0.5" transform="rotate(320.0 560.0 60.0)"/><ellipse cx="560.0" cy="36.5" rx="22.1" ry="45.6" fill="url(#pp2)" stroke="#e2adba" stroke-width="1.91" stroke-opacity="0.5" transform="rotate(25.0 560.0 60.0)"/><ellipse cx="560.0" cy="36.5" rx="22.1" ry="45.6" fill="url(#pp2)" stroke="#e2adba" stroke-width="1.91" stroke-opacity="0.5" transform="rotate(76.0 560.0 60.0)"/><ellipse cx="560.0" cy="36.5" rx="22.1" ry="45.6" fill="url(#pp2)" stroke="#e2adba" stroke-width="1.91" stroke-opacity="0.5" transform="rotate(127.0 560.0 60.0)"/><ellipse cx="560.0" cy="36.5" rx="22.1" ry="45.6" fill="url(#pp2)" stroke="#e2adba" stroke-width="1.91" stroke-opacity="0.5" transform="rotate(178.0 560.0 60.0)"/><ellipse cx="560.0" cy="36.5" rx="22.1" ry="45.6" fill="url(#pp2)" stroke="#e2adba" stroke-width="1.91" stroke-opacity="0.5" transform="rotate(229.0 560.0 60.0)"/><ellipse cx="560.0" cy="36.5" rx="22.1" ry="45.6" fill="url(#pp2)" stroke="#e2adba" stroke-width="1.91" stroke-opacity="0.5" transform="rotate(280.0 560.0 60.0)"/><ellipse cx="560.0" cy="36.5" rx="22.1" ry="45.6" fill="url(#pp2)" stroke="#e2adba" stroke-width="1.91" stroke-opacity="0.5" transform="rotate(331.0 560.0 60.0)"/><circle cx="560.0" cy="60.0" r="7.4" fill="#d98fa4"/></g><g transform="rotate(173.1 420.0 45.0)" filter="url(#soft)"><ellipse cx="420.0" cy="9.4" rx="34.2" ry="68.4" fill="url(#wp)" stroke="#d3dcbf" stroke-width="1.92" stroke-opacity="0.55" transform="rotate(0.0 420.0 45.0)"/><ellipse cx="420.0" cy="9.4" rx="34.2" ry="68.4" fill="url(#wp)" stroke="#d3dcbf" stroke-width="1.92" stroke-opacity="0.55" transform="rotate(60.0 420.0 45.0)"/><ellipse cx="420.0" cy="9.4" rx="34.2" ry="68.4" fill="url(#wp)" stroke="#d3dcbf" stroke-width="1.92" stroke-opacity="0.55" transform="rotate(120.0 420.0 45.0)"/><ellipse cx="420.0" cy="9.4" rx="34.2" ry="68.4" fill="url(#wp)" stroke="#d3dcbf" stroke-width="1.92" stroke-opacity="0.55" transform="rotate(180.0 420.0 45.0)"/><ellipse cx="420.0" cy="9.4" rx="34.2" ry="68.4" fill="url(#wp)" stroke="#d3dcbf" stroke-width="1.92" stroke-opacity="0.55" transform="rotate(240.0 420.0 45.0)"/><ellipse cx="420.0" cy="9.4" rx="34.2" ry="68.4" fill="url(#wp)" stroke="#d3dcbf" stroke-width="1.92" stroke-opacity="0.55" transform="rotate(300.0 420.0 45.0)"/><ellipse cx="420.0" cy="21.7" rx="20.5" ry="41.1" fill="url(#wp2)" stroke="#d3dcbf" stroke-width="1.92" stroke-opacity="0.55" transform="rotate(30.0 420.0 45.0)"/><ellipse cx="420.0" cy="21.7" rx="20.5" ry="41.1" fill="url(#wp2)" stroke="#d3dcbf" stroke-width="1.92" stroke-opacity="0.55" transform="rotate(102.0 420.0 45.0)"/><ellipse cx="420.0" cy="21.7" rx="20.5" ry="41.1" fill="url(#wp2)" stroke="#d3dcbf" stroke-width="1.92" stroke-opacity="0.55" transform="rotate(174.0 420.0 45.0)"/><ellipse cx="420.0" cy="21.7" rx="20.5" ry="41.1" fill="url(#wp2)" stroke="#d3dcbf" stroke-width="1.92" stroke-opacity="0.55" transform="rotate(246.0 420.0 45.0)"/><ellipse cx="420.0" cy="21.7" rx="20.5" ry="41.1" fill="url(#wp2)" stroke="#d3dcbf" stroke-width="1.92" stroke-opacity="0.55" transform="rotate(318.0 420.0 45.0)"/><circle cx="420.0" cy="45.0" r="11.0" fill="#dfe0b8"/></g><g transform="rotate(251.4 500.0 560.0)" filter="url(#soft)"><ellipse cx="500.0" cy="531.0" rx="27.9" ry="55.8" fill="url(#wp)" stroke="#d3dcbf" stroke-width="1.56" stroke-opacity="0.55" transform="rotate(0.0 500.0 560.0)"/><ellipse cx="500.0" cy="531.0" rx="27.9" ry="55.8" fill="url(#wp)" stroke="#d3dcbf" stroke-width="1.56" stroke-opacity="0.55" transform="rotate(60.0 500.0 560.0)"/><ellipse cx="500.0" cy="531.0" rx="27.9" ry="55.8" fill="url(#wp)" stroke="#d3dcbf" stroke-width="1.56" stroke-opacity="0.55" transform="rotate(120.0 500.0 560.0)"/><ellipse cx="500.0" cy="531.0" rx="27.9" ry="55.8" fill="url(#wp)" stroke="#d3dcbf" stroke-width="1.56" stroke-opacity="0.55" transform="rotate(180.0 500.0 560.0)"/><ellipse cx="500.0" cy="531.0" rx="27.9" ry="55.8" fill="url(#wp)" stroke="#d3dcbf" stroke-width="1.56" stroke-opacity="0.55" transform="rotate(240.0 500.0 560.0)"/><ellipse cx="500.0" cy="531.0" rx="27.9" ry="55.8" fill="url(#wp)" stroke="#d3dcbf" stroke-width="1.56" stroke-opacity="0.55" transform="rotate(300.0 500.0 560.0)"/><ellipse cx="500.0" cy="541.0" rx="16.7" ry="33.5" fill="url(#wp2)" stroke="#d3dcbf" stroke-width="1.56" stroke-opacity="0.55" transform="rotate(30.0 500.0 560.0)"/><ellipse cx="500.0" cy="541.0" rx="16.7" ry="33.5" fill="url(#wp2)" stroke="#d3dcbf" stroke-width="1.56" stroke-opacity="0.55" transform="rotate(102.0 500.0 560.0)"/><ellipse cx="500.0" cy="541.0" rx="16.7" ry="33.5" fill="url(#wp2)" stroke="#d3dcbf" stroke-width="1.56" stroke-opacity="0.55" transform="rotate(174.0 500.0 560.0)"/><ellipse cx="500.0" cy="541.0" rx="16.7" ry="33.5" fill="url(#wp2)" stroke="#d3dcbf" stroke-width="1.56" stroke-opacity="0.55" transform="rotate(246.0 500.0 560.0)"/><ellipse cx="500.0" cy="541.0" rx="16.7" ry="33.5" fill="url(#wp2)" stroke="#d3dcbf" stroke-width="1.56" stroke-opacity="0.55" transform="rotate(318.0 500.0 560.0)"/><circle cx="500.0" cy="560.0" r="8.9" fill="#dfe0b8"/></g><g transform="rotate(221.2 60.0 240.0)" filter="url(#soft)"><ellipse cx="60.0" cy="207.5" rx="27.3" ry="59.7" fill="url(#pp)" stroke="#e2adba" stroke-width="1.69" stroke-opacity="0.5" transform="rotate(0.0 60.0 240.0)"/><ellipse cx="60.0" cy="207.5" rx="27.3" ry="59.7" fill="url(#pp)" stroke="#e2adba" stroke-width="1.69" stroke-opacity="0.5" transform="rotate(40.0 60.0 240.0)"/><ellipse cx="60.0" cy="207.5" rx="27.3" ry="59.7" fill="url(#pp)" stroke="#e2adba" stroke-width="1.69" stroke-opacity="0.5" transform="rotate(80.0 60.0 240.0)"/><ellipse cx="60.0" cy="207.5" rx="27.3" ry="59.7" fill="url(#pp)" stroke="#e2adba" stroke-width="1.69" stroke-opacity="0.5" transform="rotate(120.0 60.0 240.0)"/><ellipse cx="60.0" cy="207.5" rx="27.3" ry="59.7" fill="url(#pp)" stroke="#e2adba" stroke-width="1.69" stroke-opacity="0.5" transform="rotate(160.0 60.0 240.0)"/><ellipse cx="60.0" cy="207.5" rx="27.3" ry="59.7" fill="url(#pp)" stroke="#e2adba" stroke-width="1.69" stroke-opacity="0.5" transform="rotate(200.0 60.0 240.0)"/><ellipse cx="60.0" cy="207.5" rx="27.3" ry="59.7" fill="url(#pp)" stroke="#e2adba" stroke-width="1.69" stroke-opacity="0.5" transform="rotate(240.0 60.0 240.0)"/><ellipse cx="60.0" cy="207.5" rx="27.3" ry="59.7" fill="url(#pp)" stroke="#e2adba" stroke-width="1.69" stroke-opacity="0.5" transform="rotate(280.0 60.0 240.0)"/><ellipse cx="60.0" cy="207.5" rx="27.3" ry="59.7" fill="url(#pp)" stroke="#e2adba" stroke-width="1.69" stroke-opacity="0.5" transform="rotate(320.0 60.0 240.0)"/><ellipse cx="60.0" cy="219.2" rx="19.5" ry="40.2" fill="url(#pp2)" stroke="#e2adba" stroke-width="1.69" stroke-opacity="0.5" transform="rotate(25.0 60.0 240.0)"/><ellipse cx="60.0" cy="219.2" rx="19.5" ry="40.2" fill="url(#pp2)" stroke="#e2adba" stroke-width="1.69" stroke-opacity="0.5" transform="rotate(76.0 60.0 240.0)"/><ellipse cx="60.0" cy="219.2" rx="19.5" ry="40.2" fill="url(#pp2)" stroke="#e2adba" stroke-width="1.69" stroke-opacity="0.5" transform="rotate(127.0 60.0 240.0)"/><ellipse cx="60.0" cy="219.2" rx="19.5" ry="40.2" fill="url(#pp2)" stroke="#e2adba" stroke-width="1.69" stroke-opacity="0.5" transform="rotate(178.0 60.0 240.0)"/><ellipse cx="60.0" cy="219.2" rx="19.5" ry="40.2" fill="url(#pp2)" stroke="#e2adba" stroke-width="1.69" stroke-opacity="0.5" transform="rotate(229.0 60.0 240.0)"/><ellipse cx="60.0" cy="219.2" rx="19.5" ry="40.2" fill="url(#pp2)" stroke="#e2adba" stroke-width="1.69" stroke-opacity="0.5" transform="rotate(280.0 60.0 240.0)"/><ellipse cx="60.0" cy="219.2" rx="19.5" ry="40.2" fill="url(#pp2)" stroke="#e2adba" stroke-width="1.69" stroke-opacity="0.5" transform="rotate(331.0 60.0 240.0)"/><circle cx="60.0" cy="240.0" r="6.5" fill="#d98fa4"/></g><g transform="rotate(92.1 745.0 430.0)" filter="url(#soft)"><ellipse cx="745.0" cy="388.8" rx="39.6" ry="79.3" fill="url(#wp)" stroke="#d3dcbf" stroke-width="2.22" stroke-opacity="0.55" transform="rotate(0.0 745.0 430.0)"/><ellipse cx="745.0" cy="388.8" rx="39.6" ry="79.3" fill="url(#wp)" stroke="#d3dcbf" stroke-width="2.22" stroke-opacity="0.55" transform="rotate(60.0 745.0 430.0)"/><ellipse cx="745.0" cy="388.8" rx="39.6" ry="79.3" fill="url(#wp)" stroke="#d3dcbf" stroke-width="2.22" stroke-opacity="0.55" transform="rotate(120.0 745.0 430.0)"/><ellipse cx="745.0" cy="388.8" rx="39.6" ry="79.3" fill="url(#wp)" stroke="#d3dcbf" stroke-width="2.22" stroke-opacity="0.55" transform="rotate(180.0 745.0 430.0)"/><ellipse cx="745.0" cy="388.8" rx="39.6" ry="79.3" fill="url(#wp)" stroke="#d3dcbf" stroke-width="2.22" stroke-opacity="0.55" transform="rotate(240.0 745.0 430.0)"/><ellipse cx="745.0" cy="388.8" rx="39.6" ry="79.3" fill="url(#wp)" stroke="#d3dcbf" stroke-width="2.22" stroke-opacity="0.55" transform="rotate(300.0 745.0 430.0)"/><ellipse cx="745.0" cy="403.0" rx="23.8" ry="47.6" fill="url(#wp2)" stroke="#d3dcbf" stroke-width="2.22" stroke-opacity="0.55" transform="rotate(30.0 745.0 430.0)"/><ellipse cx="745.0" cy="403.0" rx="23.8" ry="47.6" fill="url(#wp2)" stroke="#d3dcbf" stroke-width="2.22" stroke-opacity="0.55" transform="rotate(102.0 745.0 430.0)"/><ellipse cx="745.0" cy="403.0" rx="23.8" ry="47.6" fill="url(#wp2)" stroke="#d3dcbf" stroke-width="2.22" stroke-opacity="0.55" transform="rotate(174.0 745.0 430.0)"/><ellipse cx="745.0" cy="403.0" rx="23.8" ry="47.6" fill="url(#wp2)" stroke="#d3dcbf" stroke-width="2.22" stroke-opacity="0.55" transform="rotate(246.0 745.0 430.0)"/><ellipse cx="745.0" cy="403.0" rx="23.8" ry="47.6" fill="url(#wp2)" stroke="#d3dcbf" stroke-width="2.22" stroke-opacity="0.55" transform="rotate(318.0 745.0 430.0)"/><circle cx="745.0" cy="430.0" r="12.7" fill="#dfe0b8"/></g><g transform="rotate(108.4 300.0 560.0)" filter="url(#soft)"><ellipse cx="300.0" cy="534.8" rx="24.2" ry="48.4" fill="url(#wp)" stroke="#d3dcbf" stroke-width="1.35" stroke-opacity="0.55" transform="rotate(0.0 300.0 560.0)"/><ellipse cx="300.0" cy="534.8" rx="24.2" ry="48.4" fill="url(#wp)" stroke="#d3dcbf" stroke-width="1.35" stroke-opacity="0.55" transform="rotate(60.0 300.0 560.0)"/><ellipse cx="300.0" cy="534.8" rx="24.2" ry="48.4" fill="url(#wp)" stroke="#d3dcbf" stroke-width="1.35" stroke-opacity="0.55" transform="rotate(120.0 300.0 560.0)"/><ellipse cx="300.0" cy="534.8" rx="24.2" ry="48.4" fill="url(#wp)" stroke="#d3dcbf" stroke-width="1.35" stroke-opacity="0.55" transform="rotate(180.0 300.0 560.0)"/><ellipse cx="300.0" cy="534.8" rx="24.2" ry="48.4" fill="url(#wp)" stroke="#d3dcbf" stroke-width="1.35" stroke-opacity="0.55" transform="rotate(240.0 300.0 560.0)"/><ellipse cx="300.0" cy="534.8" rx="24.2" ry="48.4" fill="url(#wp)" stroke="#d3dcbf" stroke-width="1.35" stroke-opacity="0.55" transform="rotate(300.0 300.0 560.0)"/><ellipse cx="300.0" cy="543.5" rx="14.5" ry="29.0" fill="url(#wp2)" stroke="#d3dcbf" stroke-width="1.35" stroke-opacity="0.55" transform="rotate(30.0 300.0 560.0)"/><ellipse cx="300.0" cy="543.5" rx="14.5" ry="29.0" fill="url(#wp2)" stroke="#d3dcbf" stroke-width="1.35" stroke-opacity="0.55" transform="rotate(102.0 300.0 560.0)"/><ellipse cx="300.0" cy="543.5" rx="14.5" ry="29.0" fill="url(#wp2)" stroke="#d3dcbf" stroke-width="1.35" stroke-opacity="0.55" transform="rotate(174.0 300.0 560.0)"/><ellipse cx="300.0" cy="543.5" rx="14.5" ry="29.0" fill="url(#wp2)" stroke="#d3dcbf" stroke-width="1.35" stroke-opacity="0.55" transform="rotate(246.0 300.0 560.0)"/><ellipse cx="300.0" cy="543.5" rx="14.5" ry="29.0" fill="url(#wp2)" stroke="#d3dcbf" stroke-width="1.35" stroke-opacity="0.55" transform="rotate(318.0 300.0 560.0)"/><circle cx="300.0" cy="560.0" r="7.7" fill="#dfe0b8"/></g><g transform="rotate(72.9 250.0 55.0)" filter="url(#soft)"><ellipse cx="250.0" cy="19.5" rx="29.8" ry="65.4" fill="url(#pp)" stroke="#e2adba" stroke-width="1.85" stroke-opacity="0.5" transform="rotate(0.0 250.0 55.0)"/><ellipse cx="250.0" cy="19.5" rx="29.8" ry="65.4" fill="url(#pp)" stroke="#e2adba" stroke-width="1.85" stroke-opacity="0.5" transform="rotate(40.0 250.0 55.0)"/><ellipse cx="250.0" cy="19.5" rx="29.8" ry="65.4" fill="url(#pp)" stroke="#e2adba" stroke-width="1.85" stroke-opacity="0.5" transform="rotate(80.0 250.0 55.0)"/><ellipse cx="250.0" cy="19.5" rx="29.8" ry="65.4" fill="url(#pp)" stroke="#e2adba" stroke-width="1.85" stroke-opacity="0.5" transform="rotate(120.0 250.0 55.0)"/><ellipse cx="250.0" cy="19.5" rx="29.8" ry="65.4" fill="url(#pp)" stroke="#e2adba" stroke-width="1.85" stroke-opacity="0.5" transform="rotate(160.0 250.0 55.0)"/><ellipse cx="250.0" cy="19.5" rx="29.8" ry="65.4" fill="url(#pp)" stroke="#e2adba" stroke-width="1.85" stroke-opacity="0.5" transform="rotate(200.0 250.0 55.0)"/><ellipse cx="250.0" cy="19.5" rx="29.8" ry="65.4" fill="url(#pp)" stroke="#e2adba" stroke-width="1.85" stroke-opacity="0.5" transform="rotate(240.0 250.0 55.0)"/><ellipse cx="250.0" cy="19.5" rx="29.8" ry="65.4" fill="url(#pp)" stroke="#e2adba" stroke-width="1.85" stroke-opacity="0.5" transform="rotate(280.0 250.0 55.0)"/><ellipse cx="250.0" cy="19.5" rx="29.8" ry="65.4" fill="url(#pp)" stroke="#e2adba" stroke-width="1.85" stroke-opacity="0.5" transform="rotate(320.0 250.0 55.0)"/><ellipse cx="250.0" cy="32.3" rx="21.3" ry="44.1" fill="url(#pp2)" stroke="#e2adba" stroke-width="1.85" stroke-opacity="0.5" transform="rotate(25.0 250.0 55.0)"/><ellipse cx="250.0" cy="32.3" rx="21.3" ry="44.1" fill="url(#pp2)" stroke="#e2adba" stroke-width="1.85" stroke-opacity="0.5" transform="rotate(76.0 250.0 55.0)"/><ellipse cx="250.0" cy="32.3" rx="21.3" ry="44.1" fill="url(#pp2)" stroke="#e2adba" stroke-width="1.85" stroke-opacity="0.5" transform="rotate(127.0 250.0 55.0)"/><ellipse cx="250.0" cy="32.3" rx="21.3" ry="44.1" fill="url(#pp2)" stroke="#e2adba" stroke-width="1.85" stroke-opacity="0.5" transform="rotate(178.0 250.0 55.0)"/><ellipse cx="250.0" cy="32.3" rx="21.3" ry="44.1" fill="url(#pp2)" stroke="#e2adba" stroke-width="1.85" stroke-opacity="0.5" transform="rotate(229.0 250.0 55.0)"/><ellipse cx="250.0" cy="32.3" rx="21.3" ry="44.1" fill="url(#pp2)" stroke="#e2adba" stroke-width="1.85" stroke-opacity="0.5" transform="rotate(280.0 250.0 55.0)"/><ellipse cx="250.0" cy="32.3" rx="21.3" ry="44.1" fill="url(#pp2)" stroke="#e2adba" stroke-width="1.85" stroke-opacity="0.5" transform="rotate(331.0 250.0 55.0)"/><circle cx="250.0" cy="55.0" r="7.1" fill="#d98fa4"/></g><g transform="rotate(326.1 690.0 540.0)" filter="url(#soft)"><ellipse cx="690.0" cy="512.0" rx="26.9" ry="53.8" fill="url(#wp)" stroke="#d3dcbf" stroke-width="1.51" stroke-opacity="0.55" transform="rotate(0.0 690.0 540.0)"/><ellipse cx="690.0" cy="512.0" rx="26.9" ry="53.8" fill="url(#wp)" stroke="#d3dcbf" stroke-width="1.51" stroke-opacity="0.55" transform="rotate(60.0 690.0 540.0)"/><ellipse cx="690.0" cy="512.0" rx="26.9" ry="53.8" fill="url(#wp)" stroke="#d3dcbf" stroke-width="1.51" stroke-opacity="0.55" transform="rotate(120.0 690.0 540.0)"/><ellipse cx="690.0" cy="512.0" rx="26.9" ry="53.8" fill="url(#wp)" stroke="#d3dcbf" stroke-width="1.51" stroke-opacity="0.55" transform="rotate(180.0 690.0 540.0)"/><ellipse cx="690.0" cy="512.0" rx="26.9" ry="53.8" fill="url(#wp)" stroke="#d3dcbf" stroke-width="1.51" stroke-opacity="0.55" transform="rotate(240.0 690.0 540.0)"/><ellipse cx="690.0" cy="512.0" rx="26.9" ry="53.8" fill="url(#wp)" stroke="#d3dcbf" stroke-width="1.51" stroke-opacity="0.55" transform="rotate(300.0 690.0 540.0)"/><ellipse cx="690.0" cy="521.7" rx="16.1" ry="32.3" fill="url(#wp2)" stroke="#d3dcbf" stroke-width="1.51" stroke-opacity="0.55" transform="rotate(30.0 690.0 540.0)"/><ellipse cx="690.0" cy="521.7" rx="16.1" ry="32.3" fill="url(#wp2)" stroke="#d3dcbf" stroke-width="1.51" stroke-opacity="0.55" transform="rotate(102.0 690.0 540.0)"/><ellipse cx="690.0" cy="521.7" rx="16.1" ry="32.3" fill="url(#wp2)" stroke="#d3dcbf" stroke-width="1.51" stroke-opacity="0.55" transform="rotate(174.0 690.0 540.0)"/><ellipse cx="690.0" cy="521.7" rx="16.1" ry="32.3" fill="url(#wp2)" stroke="#d3dcbf" stroke-width="1.51" stroke-opacity="0.55" transform="rotate(246.0 690.0 540.0)"/><ellipse cx="690.0" cy="521.7" rx="16.1" ry="32.3" fill="url(#wp2)" stroke="#d3dcbf" stroke-width="1.51" stroke-opacity="0.55" transform="rotate(318.0 690.0 540.0)"/><circle cx="690.0" cy="540.0" r="8.6" fill="#dfe0b8"/></g><g transform="rotate(159.1 90.0 70.0)" filter="url(#soft)"><ellipse cx="90.0" cy="33.4" rx="35.2" ry="70.4" fill="url(#wp)" stroke="#d3dcbf" stroke-width="1.97" stroke-opacity="0.55" transform="rotate(0.0 90.0 70.0)"/><ellipse cx="90.0" cy="33.4" rx="35.2" ry="70.4" fill="url(#wp)" stroke="#d3dcbf" stroke-width="1.97" stroke-opacity="0.55" transform="rotate(60.0 90.0 70.0)"/><ellipse cx="90.0" cy="33.4" rx="35.2" ry="70.4" fill="url(#wp)" stroke="#d3dcbf" stroke-width="1.97" stroke-opacity="0.55" transform="rotate(120.0 90.0 70.0)"/><ellipse cx="90.0" cy="33.4" rx="35.2" ry="70.4" fill="url(#wp)" stroke="#d3dcbf" stroke-width="1.97" stroke-opacity="0.55" transform="rotate(180.0 90.0 70.0)"/><ellipse cx="90.0" cy="33.4" rx="35.2" ry="70.4" fill="url(#wp)" stroke="#d3dcbf" stroke-width="1.97" stroke-opacity="0.55" transform="rotate(240.0 90.0 70.0)"/><ellipse cx="90.0" cy="33.4" rx="35.2" ry="70.4" fill="url(#wp)" stroke="#d3dcbf" stroke-width="1.97" stroke-opacity="0.55" transform="rotate(300.0 90.0 70.0)"/><ellipse cx="90.0" cy="46.1" rx="21.1" ry="42.3" fill="url(#wp2)" stroke="#d3dcbf" stroke-width="1.97" stroke-opacity="0.55" transform="rotate(30.0 90.0 70.0)"/><ellipse cx="90.0" cy="46.1" rx="21.1" ry="42.3" fill="url(#wp2)" stroke="#d3dcbf" stroke-width="1.97" stroke-opacity="0.55" transform="rotate(102.0 90.0 70.0)"/><ellipse cx="90.0" cy="46.1" rx="21.1" ry="42.3" fill="url(#wp2)" stroke="#d3dcbf" stroke-width="1.97" stroke-opacity="0.55" transform="rotate(174.0 90.0 70.0)"/><ellipse cx="90.0" cy="46.1" rx="21.1" ry="42.3" fill="url(#wp2)" stroke="#d3dcbf" stroke-width="1.97" stroke-opacity="0.55" transform="rotate(246.0 90.0 70.0)"/><ellipse cx="90.0" cy="46.1" rx="21.1" ry="42.3" fill="url(#wp2)" stroke="#d3dcbf" stroke-width="1.97" stroke-opacity="0.55" transform="rotate(318.0 90.0 70.0)"/><circle cx="90.0" cy="70.0" r="11.3" fill="#dfe0b8"/></g><g transform="rotate(117.7 110.0 545.0)" filter="url(#soft)"><ellipse cx="110.0" cy="505.8" rx="32.9" ry="72.1" fill="url(#pp)" stroke="#e2adba" stroke-width="2.04" stroke-opacity="0.5" transform="rotate(0.0 110.0 545.0)"/><ellipse cx="110.0" cy="505.8" rx="32.9" ry="72.1" fill="url(#pp)" stroke="#e2adba" stroke-width="2.04" stroke-opacity="0.5" transform="rotate(40.0 110.0 545.0)"/><ellipse cx="110.0" cy="505.8" rx="32.9" ry="72.1" fill="url(#pp)" stroke="#e2adba" stroke-width="2.04" stroke-opacity="0.5" transform="rotate(80.0 110.0 545.0)"/><ellipse cx="110.0" cy="505.8" rx="32.9" ry="72.1" fill="url(#pp)" stroke="#e2adba" stroke-width="2.04" stroke-opacity="0.5" transform="rotate(120.0 110.0 545.0)"/><ellipse cx="110.0" cy="505.8" rx="32.9" ry="72.1" fill="url(#pp)" stroke="#e2adba" stroke-width="2.04" stroke-opacity="0.5" transform="rotate(160.0 110.0 545.0)"/><ellipse cx="110.0" cy="505.8" rx="32.9" ry="72.1" fill="url(#pp)" stroke="#e2adba" stroke-width="2.04" stroke-opacity="0.5" transform="rotate(200.0 110.0 545.0)"/><ellipse cx="110.0" cy="505.8" rx="32.9" ry="72.1" fill="url(#pp)" stroke="#e2adba" stroke-width="2.04" stroke-opacity="0.5" transform="rotate(240.0 110.0 545.0)"/><ellipse cx="110.0" cy="505.8" rx="32.9" ry="72.1" fill="url(#pp)" stroke="#e2adba" stroke-width="2.04" stroke-opacity="0.5" transform="rotate(280.0 110.0 545.0)"/><ellipse cx="110.0" cy="505.8" rx="32.9" ry="72.1" fill="url(#pp)" stroke="#e2adba" stroke-width="2.04" stroke-opacity="0.5" transform="rotate(320.0 110.0 545.0)"/><ellipse cx="110.0" cy="519.9" rx="23.5" ry="48.6" fill="url(#pp2)" stroke="#e2adba" stroke-width="2.04" stroke-opacity="0.5" transform="rotate(25.0 110.0 545.0)"/><ellipse cx="110.0" cy="519.9" rx="23.5" ry="48.6" fill="url(#pp2)" stroke="#e2adba" stroke-width="2.04" stroke-opacity="0.5" transform="rotate(76.0 110.0 545.0)"/><ellipse cx="110.0" cy="519.9" rx="23.5" ry="48.6" fill="url(#pp2)" stroke="#e2adba" stroke-width="2.04" stroke-opacity="0.5" transform="rotate(127.0 110.0 545.0)"/><ellipse cx="110.0" cy="519.9" rx="23.5" ry="48.6" fill="url(#pp2)" stroke="#e2adba" stroke-width="2.04" stroke-opacity="0.5" transform="rotate(178.0 110.0 545.0)"/><ellipse cx="110.0" cy="519.9" rx="23.5" ry="48.6" fill="url(#pp2)" stroke="#e2adba" stroke-width="2.04" stroke-opacity="0.5" transform="rotate(229.0 110.0 545.0)"/><ellipse cx="110.0" cy="519.9" rx="23.5" ry="48.6" fill="url(#pp2)" stroke="#e2adba" stroke-width="2.04" stroke-opacity="0.5" transform="rotate(280.0 110.0 545.0)"/><ellipse cx="110.0" cy="519.9" rx="23.5" ry="48.6" fill="url(#pp2)" stroke="#e2adba" stroke-width="2.04" stroke-opacity="0.5" transform="rotate(331.0 110.0 545.0)"/><circle cx="110.0" cy="545.0" r="7.8" fill="#d98fa4"/></g><g transform="rotate(71.5 740.0 220.0)" filter="url(#soft)"><ellipse cx="740.0" cy="183.3" rx="35.3" ry="70.6" fill="url(#wp)" stroke="#d3dcbf" stroke-width="1.98" stroke-opacity="0.55" transform="rotate(0.0 740.0 220.0)"/><ellipse cx="740.0" cy="183.3" rx="35.3" ry="70.6" fill="url(#wp)" stroke="#d3dcbf" stroke-width="1.98" stroke-opacity="0.55" transform="rotate(60.0 740.0 220.0)"/><ellipse cx="740.0" cy="183.3" rx="35.3" ry="70.6" fill="url(#wp)" stroke="#d3dcbf" stroke-width="1.98" stroke-opacity="0.55" transform="rotate(120.0 740.0 220.0)"/><ellipse cx="740.0" cy="183.3" rx="35.3" ry="70.6" fill="url(#wp)" stroke="#d3dcbf" stroke-width="1.98" stroke-opacity="0.55" transform="rotate(180.0 740.0 220.0)"/><ellipse cx="740.0" cy="183.3" rx="35.3" ry="70.6" fill="url(#wp)" stroke="#d3dcbf" stroke-width="1.98" stroke-opacity="0.55" transform="rotate(240.0 740.0 220.0)"/><ellipse cx="740.0" cy="183.3" rx="35.3" ry="70.6" fill="url(#wp)" stroke="#d3dcbf" stroke-width="1.98" stroke-opacity="0.55" transform="rotate(300.0 740.0 220.0)"/><ellipse cx="740.0" cy="196.0" rx="21.2" ry="42.4" fill="url(#wp2)" stroke="#d3dcbf" stroke-width="1.98" stroke-opacity="0.55" transform="rotate(30.0 740.0 220.0)"/><ellipse cx="740.0" cy="196.0" rx="21.2" ry="42.4" fill="url(#wp2)" stroke="#d3dcbf" stroke-width="1.98" stroke-opacity="0.55" transform="rotate(102.0 740.0 220.0)"/><ellipse cx="740.0" cy="196.0" rx="21.2" ry="42.4" fill="url(#wp2)" stroke="#d3dcbf" stroke-width="1.98" stroke-opacity="0.55" transform="rotate(174.0 740.0 220.0)"/><ellipse cx="740.0" cy="196.0" rx="21.2" ry="42.4" fill="url(#wp2)" stroke="#d3dcbf" stroke-width="1.98" stroke-opacity="0.55" transform="rotate(246.0 740.0 220.0)"/><ellipse cx="740.0" cy="196.0" rx="21.2" ry="42.4" fill="url(#wp2)" stroke="#d3dcbf" stroke-width="1.98" stroke-opacity="0.55" transform="rotate(318.0 740.0 220.0)"/><circle cx="740.0" cy="220.0" r="11.3" fill="#dfe0b8"/></g>
<rect x="215" y="150" width="370" height="300" rx="24" fill="#f6f9f0" fill-opacity="0.72" stroke="#7d9160" stroke-opacity="0.4" stroke-width="1.5"/>
<circle cx="400" cy="205" r="26" fill="#3f5233"/>
<path d="M400 220 C400 220 386 211 386 202 a8 8 0 0 1 14 -4 a8 8 0 0 1 14 4 C414 211 400 220 400 220 Z" fill="#f4f6ef"/>
<text x="400" y="278" text-anchor="middle" font-size="38" fill="#3f5233" font-family="'Playfair Display',Georgia,serif">Ziyobek</text>
<text x="400" y="308" text-anchor="middle" font-size="26" fill="#7d9160" font-family="'Great Vibes',cursive">&amp;</text>
<text x="400" y="348" text-anchor="middle" font-size="38" fill="#3f5233" font-family="'Playfair Display',Georgia,serif">Shahzoda</text>
<text x="400" y="400" text-anchor="middle" font-size="16" letter-spacing="3" fill="#54683c" font-family="Georgia,serif">11 · 08 · 2026</text>
<text x="400" y="558" text-anchor="middle" font-size="44" fill="#3f5233" font-family="'Great Vibes','Snell Roundhand',cursive">Floral</text>
</svg>